HIERARCHY
ROOT SpineBase
{
  OFFSET 0.000000 0.000000 0.000000
  CHANNELS 6 Xposition Yposition Zposition Zrotation Xrotation Yrotation
  JOINT SpineMid
  {
    OFFSET 0.000000 30.317814 0.000000
    CHANNELS 3 Zrotation Xrotation Yrotation
    JOINT SpineShoulder
    {
      OFFSET 0.138675 22.521318 -0.761895
      CHANNELS 3 Zrotation Xrotation Yrotation
      JOINT Neck
      {
        OFFSET 0.092177 7.455304 -0.563242
        CHANNELS 3 Zrotation Xrotation Yrotation
        JOINT Head
        {
          OFFSET 3.013650 14.714951 1.028584
          CHANNELS 3 Zrotation Xrotation Yrotation
          End Site
          {
            OFFSET 0 0 0
          }
        }
      }
      JOINT ShoulderLeft
      {
        OFFSET -14.203922 -1.988119 -9.765940
        CHANNELS 3 Zrotation Xrotation Yrotation
        JOINT ElbowLeft
        {
          OFFSET -6.038684 -23.057838 -5.610496
          CHANNELS 3 Zrotation Xrotation Yrotation
          JOINT WristLeft
          {
            OFFSET 6.101059 -20.829190 -5.815591
            CHANNELS 3 Zrotation Xrotation Yrotation
            JOINT HandLeft
            {
              OFFSET 0.890815 -5.383417 -0.187022
              CHANNELS 3 Zrotation Xrotation Yrotation
              JOINT HandTipLeft
              {
                OFFSET 2.216868 -7.611315 -0.777922
                CHANNELS 3 Zrotation Xrotation Yrotation
                End Site
                {
                  OFFSET 0 0 0
                }
              }
              JOINT ThumbLeft
              {
                OFFSET -3.123325 0.440438 -2.052465
                CHANNELS 3 Zrotation Xrotation Yrotation
                End Site
                {
                  OFFSET 0 0 0
                }
              }
            }
          }
        }
      }
      JOINT ShoulderRight
      {
        OFFSET 15.172810 -5.736148 8.584037
        CHANNELS 3 Zrotation Xrotation Yrotation
        JOINT ElbowRight
        {
          OFFSET 1.608351 -26.405619 1.402286
          CHANNELS 3 Zrotation Xrotation Yrotation
          JOINT WristRight
          {
            OFFSET -0.006768 -26.557607 -11.553583
            CHANNELS 3 Zrotation Xrotation Yrotation
            JOINT HandRight
            {
              OFFSET -0.134053 -2.322123 -3.151759
              CHANNELS 3 Zrotation Xrotation Yrotation
              JOINT HandTipRight
              {
                OFFSET 0.586783 -5.508514 -6.642054
                CHANNELS 3 Zrotation Xrotation Yrotation
                End Site
                {
                  OFFSET 0 0 0
                }
              }
              JOINT ThumbRight
              {
                OFFSET -1.884707 -3.310613 0.538901
                CHANNELS 3 Zrotation Xrotation Yrotation
                End Site
                {
                  OFFSET 0 0 0
                }
              }
            }
          }
        }
      }
    }
  }
  JOINT HipLeft
  {
    OFFSET -6.321338 1.219660 -7.171793
    CHANNELS 3 Zrotation Xrotation Yrotation
    JOINT KneeLeft
    {
      OFFSET -6.518217 -29.213092 -8.969614
      CHANNELS 3 Zrotation Xrotation Yrotation
      JOINT AnkleLeft
      {
        OFFSET -3.572686 -39.346150 0.309610
        CHANNELS 3 Zrotation Xrotation Yrotation
        JOINT FootLeft
        {
          OFFSET 3.292358 -7.416156 -10.453906
          CHANNELS 3 Zrotation Xrotation Yrotation
          End Site
          {
            OFFSET 0 0 0
          }
        }
      }
    }
  }
  JOINT HipRight
  {
    OFFSET 6.934217 -0.034858 0.000680
    CHANNELS 3 Zrotation Xrotation Yrotation
    JOINT KneeRight
    {
      OFFSET -6.358459 -34.712939 2.847545
      CHANNELS 3 Zrotation Xrotation Yrotation
      JOINT AnkleRight
      {
        OFFSET -10.446576 -36.271777 1.061452
        CHANNELS 3 Zrotation Xrotation Yrotation
        JOINT FootRight
        {
          OFFSET 5.737885 -5.133057 -5.364514
          CHANNELS 3 Zrotation Xrotation Yrotation
          End Site
          {
            OFFSET 0 0 0
          }
        }
      }
    }
  }
}
MOTION
Frames: 5
Frame Time: 0.033333
-26.316261 77.313000 378.381823 -6.263245 -3.574360 -49.935761 0.357270 0.070642 49.540128 0.372569 -0.109926 -0.212985 -1.945472 14.520800 -0.251491 0.000000 0.000000 0.000000 -20.873631 36.201325 6.638899 72.283453 7.351203 13.842061 11.379282 27.358061 0.261979 -6.870679 -36.986202 8.062389 0.000000 0.000000 0.000000 0.000000 0.000000 0.000000 111.491730 -40.187258 48.180768 37.196871 36.450091 -123.235875 -30.225488 -30.124836 -27.084347 -50.935453 -10.760708 29.793442 0.000000 0.000000 0.000000 0.000000 0.000000 0.000000 3.701009 17.842774 44.970860 -5.494852 4.751930 2.815516 1.785233 -7.282483 -5.432108 0.000000 0.000000 0.000000 16.664093 8.952958 50.353794 -20.900070 3.625862 1.173090 18.509098 20.503107 2.104462 0.000000 0.000000 0.000000
-24.802694 79.191787 373.880603 -6.707279 -3.524025 -49.965040 0.316301 0.157108 49.546825 0.335336 -0.092243 -0.231565 0.326774 14.552212 -0.683439 0.000000 0.000000 0.000000 -22.856128 35.507930 7.920002 77.811101 8.143906 13.016024 11.747198 33.826624 -3.173881 -5.267140 -42.109782 11.575572 0.000000 0.000000 0.000000 0.000000 0.000000 0.000000 135.246601 -41.665121 71.644599 60.028668 32.191716 -171.182465 -18.788688 -37.852785 -23.165412 -46.327169 -13.196936 23.409535 0.000000 0.000000 0.000000 0.000000 0.000000 0.000000 5.809176 15.613123 45.539518 -4.197668 7.068879 2.059741 1.345667 -8.058430 -6.449527 0.000000 0.000000 0.000000 19.678748 8.058039 50.653265 -23.541766 3.888502 2.200289 11.825692 14.164610 2.243307 0.000000 0.000000 0.000000
-23.480516 81.278118 369.634444 -6.958784 -3.311148 -48.253832 0.192185 0.157760 47.836606 0.253023 -0.275998 -0.258618 3.188150 13.588444 -1.075817 0.000000 0.000000 0.000000 -23.554433 32.548287 8.523635 81.503693 8.565164 10.084124 8.750138 38.617144 -5.437664 3.269914 -49.899862 19.803162 0.000000 0.000000 0.000000 0.000000 0.000000 0.000000 152.949729 -40.396813 92.758422 73.284738 15.684341 154.043648 -32.782308 -21.627790 -28.169328 -17.809962 -17.087233 12.217195 0.000000 0.000000 0.000000 0.000000 0.000000 0.000000 8.170892 12.760680 44.537574 -2.834751 8.855049 1.223507 0.973222 -7.200903 -6.917748 0.000000 0.000000 0.000000 21.532800 5.501278 49.553014 -24.284485 3.779573 3.111832 9.492201 8.957249 -2.808332 0.000000 0.000000 0.000000
-22.053913 83.171466 365.639982 -7.104663 -3.834901 -47.345426 0.207402 0.158640 46.888268 0.343077 -0.192108 -0.254526 5.698135 12.385332 -1.316432 0.000000 0.000000 0.000000 -23.947179 28.513664 8.975761 84.135083 8.267052 5.736751 3.713422 42.057949 -6.140502 14.585094 -53.172865 28.632169 0.000000 0.000000 0.000000 0.000000 0.000000 0.000000 165.532665 -37.980647 110.671411 78.888021 -8.165230 125.559690 -44.832894 -27.236644 -28.178012 7.731735 -5.634673 7.104524 0.000000 0.000000 0.000000 0.000000 0.000000 0.000000 9.166913 10.576216 44.400471 -1.791130 10.161001 0.416536 3.039461 -4.733474 -8.928800 0.000000 0.000000 0.000000 23.270303 5.324309 48.740880 -26.250214 3.351399 3.914028 1.861452 1.644373 -5.905643 0.000000 0.000000 0.000000
-20.803891 84.653011 362.304360 -6.901481 -4.333771 -47.504376 0.310363 0.076432 47.025856 0.417310 -0.162765 -0.239051 7.447985 10.475919 -1.278557 0.000000 0.000000 0.000000 -22.638703 23.614008 8.563385 82.668259 8.769512 0.408366 5.381813 39.285124 -4.879783 18.670015 -52.067745 31.550600 0.000000 0.000000 0.000000 0.000000 0.000000 0.000000 173.638239 -35.151471 124.517098 80.743922 -32.330844 102.747120 -42.741435 -32.355349 -24.660202 20.683082 0.424620 4.210820 0.000000 0.000000 0.000000 0.000000 0.000000 0.000000 9.965229 8.400087 45.349702 -1.508368 11.403089 -0.280609 6.600744 -1.880342 -12.040317 0.000000 0.000000 0.000000 24.533887 5.986961 48.845998 -27.935320 3.075424 4.459744 -7.001354 -5.502148 -9.097578 0.000000 0.000000 0.000000
